<svg width="774" height="774" viewBox="0 0 774 774" fill="none" xmlns="http://www.w3.org/2000/svg">
<path d="M665.534 391.535C681.659 396.07 696.272 402.747 709.374 411.565C722.476 420.384 733.939 430.966 743.766 443.312C753.592 455.657 761.024 469.389 766.063 484.506C771.103 499.623 773.748 515.496 774 532.125C774 552.281 770.221 571.052 762.662 588.437C755.104 605.821 744.773 621.19 731.672 634.544C718.57 647.897 703.075 658.354 685.187 665.912C667.298 673.471 648.527 677.25 628.875 677.25H217.688C194.256 677.25 172.336 672.841 151.928 664.022C131.52 655.204 113.505 643.11 97.8838 627.741C82.2627 612.372 70.1689 594.483 61.6025 574.075C53.0361 553.667 48.627 531.621 48.375 507.938C48.375 489.041 51.3984 470.9 57.4453 453.516C39.5566 439.91 25.5732 423.029 15.4951 402.873C5.41699 382.717 0.251953 361.301 0 338.625C0 318.721 3.7793 299.95 11.3379 282.313C18.8965 264.677 29.2266 249.308 42.3281 236.206C55.4297 223.104 70.7988 212.648 88.4355 204.838C106.072 197.027 124.969 193.248 145.125 193.5H153.062C155.581 193.5 158.353 193.752 161.376 194.256C168.179 179.139 176.871 165.659 187.453 153.817C198.035 141.976 210.003 131.771 223.356 123.205C236.71 114.639 251.071 108.088 266.44 103.553C281.81 99.0176 297.809 96.75 314.438 96.75C335.602 96.75 355.632 100.403 374.528 107.71C393.425 115.017 410.432 125.221 425.549 138.322C440.666 151.424 453.138 166.919 462.964 184.808C472.79 202.696 479.215 222.097 482.238 243.009C503.402 245.024 523.559 250.063 542.707 258.126C561.855 266.188 579.492 276.896 595.617 290.25C611.742 303.604 625.726 318.721 637.567 335.602C649.409 352.482 658.731 371.127 665.534 391.535ZM145.125 241.875C131.771 241.875 119.3 244.395 107.71 249.434C96.1201 254.473 85.79 261.401 76.7197 270.22C67.6494 279.038 60.7207 289.242 55.9336 300.832C51.1465 312.422 48.627 325.02 48.375 338.625C48.375 352.23 51.0205 365.08 56.3115 377.174C61.6025 389.268 69.4131 400.102 79.7432 409.676C95.6162 387.252 115.646 369.867 139.834 357.521C164.021 345.176 189.973 338.877 217.688 338.625C227.262 338.625 236.71 339.381 246.032 340.893C255.354 342.404 264.425 344.798 273.243 348.073C281.306 333.712 291.132 320.61 302.722 308.769C314.312 296.927 327.035 286.471 340.893 277.4C354.75 268.33 369.489 260.897 385.11 255.103C400.731 249.308 416.73 245.402 433.107 243.387C430.336 229.277 425.423 216.176 418.368 204.082C411.313 191.988 402.369 181.658 391.535 173.092C380.701 164.525 368.859 157.723 356.01 152.684C343.16 147.645 329.303 145.125 314.438 145.125C298.816 145.125 284.077 147.896 270.22 153.439C256.362 158.982 244.017 166.793 233.183 176.871C222.349 186.949 213.53 198.665 206.728 212.019C199.925 225.372 195.894 239.985 194.634 255.858C187.075 251.575 179.139 248.174 170.824 245.654C162.51 243.135 153.943 241.875 145.125 241.875ZM628.875 628.875C642.229 628.875 654.7 626.355 666.29 621.316C677.88 616.277 688.21 609.349 697.28 600.53C706.351 591.712 713.279 581.508 718.066 569.918C722.854 558.328 725.373 545.73 725.625 532.125C725.625 518.268 723.105 505.418 718.066 493.576C713.027 481.734 705.847 471.53 696.524 462.964C687.202 454.397 676.62 447.595 664.778 442.556C652.937 437.517 640.087 435.123 626.229 435.375C623.206 414.715 616.781 395.566 606.955 377.93C597.129 360.293 584.909 344.924 570.296 331.822C555.683 318.721 538.802 308.517 519.653 301.21C500.505 293.903 480.475 290.25 459.562 290.25C440.162 290.25 421.77 293.399 404.385 299.698C387 305.997 371.001 314.689 356.388 325.775C341.774 336.861 329.429 350.215 319.351 365.836C309.272 381.457 301.588 398.464 296.297 416.856C285.211 407.282 272.991 399.976 259.638 394.937C246.284 389.897 232.301 387.252 217.688 387C201.059 387 185.438 390.149 170.824 396.448C156.211 402.747 143.361 411.313 132.275 422.147C121.189 432.981 112.497 445.831 106.198 460.696C99.8994 475.562 96.75 491.309 96.75 507.938C96.75 524.566 99.8994 540.187 106.198 554.801C112.497 569.414 121.063 582.264 131.897 593.35C142.731 604.436 155.581 613.128 170.446 619.427C185.312 625.726 201.059 628.875 217.688 628.875H628.875Z" fill="black"/>
</svg>
