<svg width="81" height="81" viewBox="0 0 81 81" fill="none" xmlns="http://www.w3.org/2000/svg">
<path d="M30.375 26.1565C30.375 16.8752 21.6675 10.9352 21.2963 10.699C20.7381 10.3217 20.0799 10.1201 19.4063 10.1201C18.7326 10.1201 18.0744 10.3217 17.5163 10.699C17.145 10.969 8.4375 16.8752 8.4375 26.1565C8.4375 29.0656 9.59313 31.8555 11.6502 33.9125C13.7072 35.9696 16.4972 37.1252 19.4063 37.1252C22.3154 37.1252 25.1053 35.9696 27.1623 33.9125C29.2194 31.8555 30.375 29.0656 30.375 26.1565ZM19.4063 30.3752C18.2874 30.3752 17.2143 29.9307 16.4231 29.1396C15.632 28.3484 15.1875 27.2753 15.1875 26.1565C15.4652 22.9566 16.9785 19.9906 19.4063 17.8877C21.8485 19.9793 23.365 22.9515 23.625 26.1565C23.625 27.2753 23.1805 28.3484 22.3894 29.1396C21.5982 29.9307 20.5251 30.3752 19.4063 30.3752ZM39.8588 34.324C39.3007 33.9467 38.6424 33.7451 37.9688 33.7451C37.2951 33.7451 36.6369 33.9467 36.0788 34.324C35.505 34.729 21.9375 44.1115 21.9375 58.219C21.9375 62.4707 23.6265 66.5483 26.633 69.5548C29.6394 72.5612 33.717 74.2502 37.9688 74.2502C42.2205 74.2502 46.2981 72.5612 49.3046 69.5548C52.311 66.5483 54 62.4707 54 58.219C54 43.8752 40.5 34.6952 39.8588 34.324ZM37.9688 67.5002C36.7499 67.5002 35.543 67.2602 34.417 66.7937C33.2909 66.3273 32.2678 65.6437 31.4059 64.7818C30.5441 63.92 29.8604 62.8968 29.394 61.7708C28.9276 60.6447 28.6875 59.4378 28.6875 58.219C28.6875 50.4227 34.7963 44.1452 38.0025 41.344C41.175 44.0102 47.25 50.2202 47.25 58.219C47.25 59.4378 47.01 60.6447 46.5435 61.7708C46.0771 62.8968 45.3934 63.92 44.5316 64.7818C43.6698 65.6437 42.6466 66.3273 41.5205 66.7937C40.3945 67.2602 39.1876 67.5002 37.9688 67.5002ZM60.9525 7.32396C60.3944 6.94671 59.7362 6.74512 59.0625 6.74512C58.3889 6.74512 57.7306 6.94671 57.1725 7.32396C56.7 7.66146 45.5625 15.3565 45.5625 27.0002C45.5625 30.5806 46.9848 34.0144 49.5166 36.5462C52.0483 39.0779 55.4821 40.5002 59.0625 40.5002C62.6429 40.5002 66.0767 39.0779 68.6085 36.5462C71.1402 34.0144 72.5625 30.5806 72.5625 27.0002C72.5625 15.2215 61.425 7.62771 60.9525 7.32396ZM59.0625 33.7502C57.2723 33.7502 55.5554 33.0391 54.2896 31.7732C53.0237 30.5073 52.3125 28.7904 52.3125 27.0002C52.5438 24.5632 53.2601 22.197 54.4193 20.0409C55.5786 17.8848 57.1572 15.9822 59.0625 14.4452C60.9749 15.9757 62.5586 17.8766 63.7185 20.034C64.8784 22.1914 65.5906 24.5609 65.8125 27.0002C65.8125 28.7904 65.1014 30.5073 63.8355 31.7732C62.5696 33.0391 60.8527 33.7502 59.0625 33.7502Z" fill="black"/>
</svg>
