<svg width="171" height="171" viewBox="0 0 171 171" fill="none" xmlns="http://www.w3.org/2000/svg">
<path d="M147.438 123.477C149.985 113.975 150.312 104.016 148.394 94.3676C146.476 84.7196 142.364 75.6423 136.377 67.8379C130.389 60.0334 122.686 53.7111 113.864 49.3601C105.042 45.0091 95.3368 42.7461 85.5 42.7461C75.6632 42.7461 65.9583 45.0091 57.1362 49.3601C48.314 53.7111 40.6111 60.0334 34.6234 67.8379C28.6358 75.6423 24.5238 84.7196 22.6058 94.3676C20.6878 104.016 21.0151 113.975 23.5624 123.477" stroke="black" stroke-linecap="round"/>
<path d="M90.9582 111.022C94.428 116.081 91.9842 123.79 85.5004 128.243C79.0167 132.704 70.944 132.219 67.4742 127.168C63.7692 121.781 50.9869 91.4927 43.2278 72.754C41.7671 69.2271 46.0778 66.2631 48.8565 68.8922C63.5625 82.8572 87.2603 105.636 90.9582 111.022Z" stroke="black"/>
<path d="M85.5001 42.75V57M40.1566 61.5315L50.2314 71.6063M130.844 61.5315L120.769 71.6063M147.438 123.476L133.679 119.786M23.5625 123.476L37.3209 119.786" stroke="black" stroke-linecap="round"/>
</svg>
