<svg width="149" height="149" viewBox="0 0 149 149" fill="none" xmlns="http://www.w3.org/2000/svg">
<g filter="url(#filter0_d_349_5)">
<path d="M22.8477 84.0853C22.8477 78.324 24.6357 73.258 28.2613 68.788C31.8373 64.318 36.4563 61.4373 42.0687 60.1956C43.509 53.3416 46.936 47.7789 52.3497 43.3586C57.7634 38.9383 63.9717 36.7529 71.0244 36.7529C77.9281 36.7529 84.0867 38.8886 89.5004 43.1103C94.8644 47.3319 98.3908 52.7953 100.03 59.5003H101.718C106.188 59.5003 110.311 60.5929 114.036 62.7783C117.81 64.9636 120.741 67.9436 122.926 71.7183C125.062 75.493 126.154 79.6153 126.154 84.0853C126.154 90.7406 123.87 96.4026 119.35 101.171C114.781 105.939 109.218 108.422 102.612 108.621C102.016 108.621 101.718 108.323 101.718 107.776V101.121C101.718 100.575 102.016 100.277 102.612 100.277C106.784 99.929 110.41 98.1906 113.39 95.0616C116.37 91.9326 117.86 88.2573 117.86 84.0356C117.86 79.6153 116.271 75.791 113.092 72.5626C109.913 69.384 106.139 67.745 101.718 67.745H93.6228C93.0268 67.745 92.6791 67.447 92.5301 66.851L92.1824 64.02C91.8347 60.4936 90.6924 57.2653 88.7057 54.3846C86.7455 51.5248 84.112 49.1909 81.0373 47.5886C77.9626 45.9863 74.5411 45.1648 71.0741 45.1963C65.6107 45.1963 60.8924 46.9843 56.8694 50.6099C52.8464 54.2356 50.5617 58.7553 50.065 64.1193L49.7174 66.8013C49.7174 67.2483 49.469 67.4966 48.9227 67.4966L46.2407 68.043C42.0687 68.3906 38.5423 70.0793 35.761 73.1586C32.93 76.238 31.5393 79.8636 31.5393 84.0853C31.5393 88.4063 33.0293 92.1313 35.9597 95.2603C38.89 98.3893 42.466 100.078 46.7374 100.326C47.3334 100.326 47.6314 100.624 47.6314 101.171V107.826C47.6314 108.372 47.3334 108.67 46.7374 108.67C43.4594 108.521 40.38 107.776 37.4 106.435C34.42 105.094 31.887 103.306 29.801 101.121C27.6653 98.9356 25.9767 96.4026 24.735 93.4226C23.4933 90.4426 22.8477 87.3633 22.8477 84.0853ZM49.767 117.71C49.767 117.561 49.8167 117.312 49.8664 117.064C49.916 116.816 49.9657 116.617 49.9657 116.518L51.3067 111.402C51.6544 110.309 52.3 109.415 53.2934 108.869C54.2867 108.273 55.3297 108.174 56.472 108.521C57.6144 108.869 58.4587 109.515 59.0547 110.508C59.6507 111.501 59.75 112.544 59.4024 113.687L58.2104 118.703C57.5647 120.888 56.323 121.981 54.4357 121.981H53.9887C53.8397 121.981 53.641 121.931 53.4424 121.931C53.2437 121.882 53.0947 121.882 52.9457 121.882C51.9027 121.584 51.108 120.988 50.5617 120.193C50.0154 119.398 49.767 118.504 49.767 117.71ZM56.323 93.7703C56.323 93.671 56.323 93.4723 56.3727 93.224C56.4224 92.9756 56.4224 92.8266 56.4224 92.777L57.9124 87.562C58.2104 86.6183 58.7567 85.8733 59.5017 85.327C60.2467 84.8303 61.0414 84.582 61.836 84.582H62.2334C62.3824 84.582 62.5314 84.6316 62.6804 84.6316C62.8294 84.6813 62.9784 84.6813 63.0777 84.6813C64.22 85.029 65.0644 85.6746 65.6107 86.668C66.2067 87.6613 66.306 88.7043 65.9584 89.8466L64.7664 94.8133C64.4187 96.204 63.773 97.1476 62.7797 97.7436C61.7864 98.3396 60.6937 98.3396 59.5514 97.843C58.4587 97.545 57.664 96.9986 57.1177 96.1543C56.5714 95.31 56.323 94.565 56.323 93.7703ZM62.432 133.255C62.432 133.106 62.4817 132.908 62.5314 132.61C62.581 132.312 62.6307 132.163 62.6307 132.014L64.071 127.097C64.369 125.905 65.0644 125.011 66.0577 124.415C67.0511 123.819 68.1437 123.67 69.2861 124.017C70.4284 124.365 71.2231 125.011 71.8191 126.054C72.4151 127.097 72.4647 128.14 72.1667 129.282L70.9251 134.447C70.3787 136.484 69.0874 137.477 66.9517 137.477C66.7034 137.477 66.306 137.427 65.7597 137.278C65.2733 137.211 64.8061 137.044 64.3874 136.787C63.9686 136.531 63.6073 136.191 63.326 135.788C62.7556 135.066 62.4412 134.175 62.432 133.255ZM69.0874 109.564C69.0874 109.266 69.1371 108.869 69.2861 108.323L70.6271 103.207C70.9747 102.065 71.6204 101.22 72.6634 100.674C73.6567 100.078 74.7494 99.9787 75.8917 100.326C76.4294 100.459 76.9338 100.701 77.3728 101.039C77.8119 101.376 78.176 101.801 78.4421 102.287C78.7083 102.773 78.8707 103.308 78.919 103.86C78.9673 104.411 78.9004 104.967 78.7227 105.492L77.5307 110.409C76.8851 112.644 75.6931 113.786 73.9547 113.786C73.7561 113.786 73.2097 113.687 72.4151 113.488C71.9287 113.421 71.4615 113.253 71.0427 112.997C70.6239 112.741 70.2626 112.401 69.9814 111.998C69.4134 111.313 69.0978 110.454 69.0874 109.564ZM83.0934 117.908C83.0934 117.561 83.1431 117.163 83.2424 116.716L84.6331 111.799C84.9807 110.607 85.6264 109.713 86.6694 109.117C87.7124 108.521 88.7057 108.372 89.7984 108.67C90.9407 109.018 91.8348 109.664 92.4308 110.707C93.0268 111.7 93.1758 112.743 92.8778 113.836L91.4374 119.1C90.9407 121.137 89.6494 122.13 87.5137 122.13C87.0667 122.13 86.6197 122.08 86.2224 121.981C85.7608 121.899 85.3205 121.725 84.9279 121.469C84.5352 121.213 84.1984 120.881 83.9377 120.491C83.4411 119.597 83.1431 118.753 83.0934 117.908ZM89.9474 94.267C89.9474 94.118 90.0467 93.671 90.1957 92.9756L91.6857 87.86C91.8844 86.817 92.3314 86.0223 93.1261 85.5256C93.9208 85.029 94.7154 84.7806 95.5598 84.8303C95.7584 84.7806 96.2054 84.8303 96.7518 84.9793C97.8444 85.2276 98.6888 85.8733 99.3344 86.8666C99.9304 87.711 100.03 88.754 99.6821 90.095L98.4901 95.2106C97.8444 97.3463 96.6028 98.439 94.7154 98.439C94.4174 98.439 93.8711 98.3396 93.0267 98.141C92.1605 97.9207 91.3904 97.4226 90.8342 96.7229C90.278 96.0232 89.9665 95.1606 89.9474 94.267Z" fill="black"/>
</g>
<defs>
<filter id="filter0_d_349_5" x="-4" y="0" width="157" height="157" filterUnits="userSpaceOnUse" color-interpolation-filters="sRGB">
<feFlood flood-opacity="0" result="BackgroundImageFix"/>
<feColorMatrix in="SourceAlpha" type="matrix" values="0 0 0 0 0 0 0 0 0 0 0 0 0 0 0 0 0 0 127 0" result="hardAlpha"/>
<feOffset dy="4"/>
<feGaussianBlur stdDeviation="2"/>
<feComposite in2="hardAlpha" operator="out"/>
<feColorMatrix type="matrix" values="0 0 0 0 0 0 0 0 0 0 0 0 0 0 0 0 0 0 0.25 0"/>
<feBlend mode="normal" in2="BackgroundImageFix" result="effect1_dropShadow_349_5"/>
<feBlend mode="normal" in="SourceGraphic" in2="effect1_dropShadow_349_5" result="shape"/>
</filter>
</defs>
</svg>
