<svg width="139" height="139" viewBox="0 0 139 139" fill="none" xmlns="http://www.w3.org/2000/svg">
<path d="M47.7828 130.312C47.0427 130.312 46.3149 130.123 45.6686 129.762C45.0223 129.401 44.4788 128.881 44.0898 128.252C43.7008 127.622 43.4791 126.904 43.4458 126.164C43.4125 125.425 43.5687 124.689 43.8995 124.027L52.587 106.652C52.831 106.124 53.1785 105.65 53.609 105.259C54.0396 104.868 54.5443 104.567 55.0932 104.375C55.6422 104.182 56.2242 104.102 56.8048 104.139C57.3854 104.175 57.9526 104.328 58.473 104.588C58.9933 104.849 59.456 105.211 59.8338 105.653C60.2115 106.095 60.4965 106.609 60.6719 107.164C60.8474 107.719 60.9096 108.303 60.8549 108.882C60.8002 109.461 60.6298 110.023 60.3536 110.535L51.6661 127.91C51.3065 128.632 50.7524 129.24 50.0664 129.664C49.3804 130.089 48.5895 130.313 47.7828 130.312Z" fill="black"/>
<path d="M107.726 39.6847C105.875 30.918 101.067 23.054 94.108 17.4107C87.1487 11.7673 78.4611 8.6875 69.5012 8.6875C60.5413 8.6875 51.8537 11.7673 44.8944 17.4107C37.9351 23.054 33.127 30.918 31.2761 39.6847C24.4175 41.0777 18.3212 44.9694 14.1706 50.6045C10.02 56.2395 8.11127 63.2157 8.81495 70.1789C9.51863 77.142 12.7845 83.5953 17.9786 88.286C23.1727 92.9767 29.9244 95.5701 36.923 95.5627H84.1874L78.6448 106.652C78.1404 107.682 78.0633 108.868 78.4302 109.954C78.7972 111.04 79.5784 111.937 80.6037 112.449C81.629 112.962 82.8152 113.048 83.9039 112.69C84.9925 112.331 85.8954 111.557 86.4157 110.536L93.9044 95.5627H102.079C109.078 95.5701 115.83 92.9767 121.024 88.286C126.218 83.5953 129.484 77.142 130.187 70.1789C130.891 63.2157 128.982 56.2395 124.832 50.6045C120.681 44.9694 114.585 41.0777 107.726 39.6847ZM102.079 86.8752H36.923C31.8833 86.863 27.0433 84.9039 23.414 81.4072C19.7847 77.9105 17.647 73.1467 17.4474 68.1109C17.2478 63.0752 19.0017 58.1571 22.3428 54.3841C25.6839 50.6111 30.3537 48.275 35.3766 47.8639L38.9211 47.5859L39.3512 44.0588C40.2579 36.7006 43.824 29.9279 49.3777 25.0165C54.9314 20.1051 62.0894 17.394 69.5033 17.394C76.9172 17.394 84.0752 20.1051 89.629 25.0165C95.1827 29.9279 98.7488 36.7006 99.6555 44.0588L100.086 47.5859L103.626 47.8639C108.649 48.275 113.318 50.6111 116.66 54.3841C120.001 58.1571 121.755 63.0752 121.555 68.1109C121.355 73.1467 119.218 77.9105 115.588 81.4072C111.959 84.9039 107.119 86.863 102.079 86.8752Z" fill="black"/>
</svg>
