<svg width="142" height="142" viewBox="0 0 142 142" fill="none" xmlns="http://www.w3.org/2000/svg">
<path d="M45.0881 105.41C46.8707 105.41 48.2375 103.863 48.2375 101.725L48.1792 88.2353L53.6462 85.086L68.5055 75.2804L67.4937 93.0481V99.3494L55.728 106.006C53.8262 107.076 53.2303 109.036 54.1812 110.58C55.193 112.424 57.0947 112.659 58.9357 111.592L67.4937 106.718V117.475C67.4937 119.673 68.9213 121.22 71.0006 121.22C73.1991 121.22 74.5075 119.673 74.5075 117.475V106.718L83.0047 111.592C84.8482 112.662 86.7499 112.424 87.82 110.641C88.7709 109.036 88.1167 107.076 86.2149 106.006L74.5075 99.3494V93.0481L73.4957 75.2804L88.355 85.0251L93.822 88.1745L93.7029 101.725C93.7029 103.865 95.0722 105.41 96.9131 105.41C99.0507 105.41 100.182 103.805 100.182 101.725V91.9197L109.571 97.3284C111.473 98.3985 113.433 97.9826 114.445 96.0808C115.515 94.2982 114.919 92.2164 113.076 91.2072L103.689 85.7985L112.186 80.8665C114.029 79.7965 114.803 78.0139 113.732 76.2313C112.782 74.6262 110.88 74.152 108.978 75.2804L97.3289 82.1141L91.8619 78.9648L75.9326 71.0001L91.8619 63.0379L97.3289 59.8277L108.978 66.6615C110.819 67.7899 112.84 67.3157 113.791 65.7689C114.8 63.928 114.029 62.1428 112.186 61.0753L103.747 56.1433L113.078 50.793C114.98 49.6646 115.573 47.7628 114.445 45.861C113.433 44.0784 111.473 43.5434 109.571 44.6718L100.182 50.0804L100.121 40.2165C100.121 38.1372 99.0507 36.5296 96.9131 36.5904C95.0696 36.5904 93.7029 38.0764 93.7029 40.2165L93.822 53.7623L88.355 56.9117L73.4957 66.6589L74.5075 48.8887V42.5899L86.2149 35.9362C88.1167 34.8662 88.7709 32.9035 87.82 31.3593C86.7499 29.5183 84.8482 29.28 83.0047 30.3501L74.5075 35.2237V24.4647C74.5075 22.2662 73.1991 20.7803 71.0006 20.7803C68.9213 20.7803 67.4937 22.2662 67.4937 24.4647V35.2237L58.9357 30.3501C57.0947 29.3383 55.193 29.5183 54.1812 31.3593C53.2303 32.9061 53.8262 34.8662 55.728 35.9362L67.4937 42.5925V48.8912L68.5055 66.7223L53.6462 56.9142L48.1792 53.7065L48.2375 40.2165C48.2375 38.0764 46.8707 36.5904 45.0881 36.5904C42.9505 36.5904 41.8196 38.1372 41.8196 40.2165L41.7613 50.0221L32.4298 44.6718C30.5889 43.6017 28.5679 44.0784 27.5562 45.861C26.4278 47.7628 27.082 49.7229 28.9255 50.793L38.2544 56.1433L29.8155 61.0753C27.972 62.1454 27.1403 63.8697 28.2104 65.7714C29.103 67.3157 31.1823 67.7899 33.0257 66.6615L44.6723 59.8861L50.1393 63.0354L66.0712 71.0001L50.1418 78.9622L44.6748 82.1141L33.0257 75.2778C31.1239 74.1494 29.1638 74.6262 28.2713 76.1704C27.262 78.0722 27.9746 79.7965 29.818 80.8665L38.2569 85.7985L28.9255 91.2072C27.0845 92.2164 26.4912 94.2957 27.5587 96.0808C28.6288 97.9826 30.5889 98.3376 32.4324 97.3284L41.7638 91.9197L41.8221 101.725C41.8221 103.805 42.9505 105.41 45.0932 105.41" fill="black"/>
</svg>
