<svg width="520" height="520" viewBox="0 0 520 520" fill="none" xmlns="http://www.w3.org/2000/svg">
<path d="M260 476.667C284.69 476.671 308.771 469.007 328.916 454.732C349.062 440.458 364.276 420.279 372.456 396.984C380.637 373.689 381.38 348.428 374.582 324.693C367.785 300.957 353.783 279.919 334.512 264.485C331.63 262.292 329.279 259.478 327.632 256.253C325.986 253.027 325.086 249.472 325 245.852V108.334C325 91.0944 318.152 74.5614 305.962 62.3716C293.772 50.1817 277.239 43.3335 260 43.3335C242.761 43.3335 226.228 50.1817 214.038 62.3716C201.848 74.5614 195 91.0944 195 108.334V245.874C195 253.197 191.208 259.914 185.488 264.507C166.226 279.943 152.232 300.98 145.44 324.711C138.648 348.443 139.393 373.698 147.572 396.988C155.752 420.278 170.962 440.453 191.101 454.726C211.241 468.999 235.316 476.666 260 476.667Z" stroke="black" stroke-width="1.5"/>
<path d="M314.165 357.5C314.165 371.866 308.459 385.644 298.3 395.802C288.142 405.96 274.365 411.667 259.999 411.667C245.633 411.667 231.855 405.96 221.697 395.802C211.539 385.644 205.832 371.866 205.832 357.5C205.832 343.134 211.539 329.357 221.697 319.199C231.855 309.04 245.633 303.333 259.999 303.333C274.365 303.333 288.142 309.04 298.3 319.199C308.459 329.357 314.165 343.134 314.165 357.5Z" stroke="black" stroke-width="1.5"/>
<path d="M260 303.333V108.333" stroke="black" stroke-width="1.5" stroke-linecap="round"/>
</svg>
