<svg width="178" height="178" viewBox="0 0 178 178" fill="none" xmlns="http://www.w3.org/2000/svg">
<path d="M24.8594 100.155C24.8594 106.8 26.8174 112.733 30.7927 117.955C34.768 123.176 39.8707 126.677 46.1007 128.397L42.1847 138.484C41.888 139.315 42.1847 139.789 43.0154 139.789H55.6534L47.1687 164.769H48.8894L74.7587 131.186C74.996 130.949 74.996 130.652 74.8774 130.355C74.7587 130.059 74.462 129.94 74.0467 129.94H61.0527L75.8267 102.35C76.242 101.519 76.0047 101.045 74.996 101.045H57.4334C56.8994 101.045 56.4247 101.341 56.0687 101.935L49.72 119.023C45.448 117.955 41.9474 115.7 39.1587 112.14C36.37 108.639 35.0054 104.664 35.0054 100.155C35.0054 95.1705 36.6667 90.8392 39.9894 87.2199C43.312 83.6005 47.4654 81.4645 52.5087 80.8712L55.5347 80.6932C56.2467 80.6932 56.662 80.3965 56.84 79.8625L57.2554 76.3619C57.908 69.9539 60.578 64.5545 65.384 60.2232C70.19 55.8919 75.8267 53.6965 82.3534 53.6965C88.8207 53.6965 94.4574 55.8919 99.3227 60.2232C104.188 64.5545 106.977 69.9539 107.629 76.3619L108.104 79.8625C108.104 80.5152 108.46 80.8712 109.172 80.8712H118.725C124.005 80.8712 128.574 82.7699 132.431 86.5672C136.287 90.3645 138.186 94.8739 138.186 100.155C138.186 105.317 136.406 109.767 132.846 113.564C129.286 117.361 125.014 119.379 119.911 119.675C119.14 119.675 118.725 120.031 118.725 120.743V128.694C118.725 129.347 119.14 129.703 119.911 129.703C125.133 129.584 129.939 128.16 134.27 125.431C138.601 122.761 142.043 119.141 144.594 114.691C147.145 110.241 148.391 105.376 148.391 100.155C148.391 95.8232 147.561 91.8479 145.84 88.1692C150.349 82.4732 152.604 75.9465 152.604 68.6485C152.604 63.0119 151.18 57.7906 148.391 52.9846C145.67 48.2455 141.738 44.3142 136.999 41.5925C132.193 38.8039 126.972 37.3799 121.335 37.3799C117.063 37.3799 112.91 38.2699 108.875 40.0499C104.841 41.8299 101.399 44.3219 98.4327 47.4665C93.6267 44.9152 88.2867 43.6099 82.294 43.6099C73.8687 43.6099 66.3927 46.2205 59.9254 51.4419C53.458 56.6632 49.2454 63.3085 47.4654 71.4372C40.8794 72.9799 35.48 76.4212 31.208 81.7612C26.9954 87.2199 24.8594 93.3312 24.8594 100.155ZM71.614 160.793C71.614 161.802 71.9107 162.751 72.5634 163.701C73.216 164.65 74.1654 165.303 75.4707 165.659C76.0047 165.777 76.4794 165.837 76.8947 165.837C79.446 165.837 81.048 164.65 81.6414 162.217L82.4127 158.717C82.7795 157.361 82.6095 155.916 81.938 154.682C81.6068 154.108 81.1534 153.614 80.61 153.234C80.0666 152.855 79.4464 152.6 78.7934 152.487C78.1782 152.276 77.5241 152.204 76.8779 152.276C76.2317 152.348 75.6094 152.562 75.0554 152.902C73.8094 153.614 73.038 154.623 72.6227 155.928L71.8514 159.429C71.6734 160.141 71.614 160.615 71.614 160.793ZM76.3014 143.587C76.3014 144.951 76.776 146.079 77.7254 147.028C78.6747 147.977 79.8614 148.452 81.1667 148.452C82.5907 148.452 83.718 147.977 84.6674 147.087C85.6167 146.138 86.032 145.011 86.032 143.587C86.054 142.944 85.9428 142.305 85.7053 141.708C85.4678 141.111 85.1092 140.569 84.6521 140.118C84.195 139.666 83.6493 139.314 83.0494 139.084C82.4496 138.854 81.8085 138.751 81.1667 138.781C79.7427 138.781 78.6154 139.255 77.666 140.145C76.7167 141.035 76.3014 142.222 76.3014 143.587ZM79.98 130.118C79.9207 131.008 80.158 131.957 80.8107 132.907C81.404 133.856 82.294 134.449 83.4807 134.687C84.8454 135.043 86.0914 134.924 87.278 134.331C88.4647 133.737 89.236 132.61 89.7107 131.008L91.2534 125.668C91.6687 124.363 91.55 123.117 90.838 121.93C90.4955 121.347 90.0415 120.837 89.5019 120.43C88.9623 120.023 88.3478 119.726 87.6934 119.557C86.388 119.141 85.142 119.319 83.896 120.031C82.65 120.743 81.8787 121.811 81.4634 123.176L80.158 128.516C80.0394 128.991 79.98 129.525 79.98 130.118ZM96.356 142.875C96.356 143.883 96.6527 144.833 97.246 145.723C97.8394 146.613 98.7294 147.265 99.9754 147.621C100.153 147.621 100.45 147.681 100.806 147.74C101.162 147.799 101.459 147.859 101.637 147.859C104.069 147.859 105.553 146.553 106.146 143.943L106.977 140.383C107.392 139.137 107.273 137.891 106.561 136.645C105.911 135.468 104.824 134.594 103.535 134.212C102.052 133.856 100.687 133.975 99.5007 134.687C98.314 135.399 97.4834 136.407 97.068 137.831L96.534 141.332C96.534 141.391 96.534 141.629 96.4747 141.985C96.4154 142.4 96.356 142.637 96.356 142.875ZM100.747 125.312C100.747 126.677 101.221 127.804 102.171 128.694C103.061 129.643 104.188 130.118 105.612 130.118C107.036 130.118 108.163 129.643 109.113 128.753C110.062 127.804 110.477 126.677 110.477 125.312C110.477 123.888 110.003 122.761 109.113 121.811C108.656 121.353 108.109 120.995 107.506 120.76C106.904 120.525 106.258 120.418 105.612 120.447C104.188 120.447 103.061 120.921 102.111 121.811C101.162 122.701 100.747 123.888 100.747 125.312ZM106.917 53.5186C110.893 49.7212 115.699 47.7632 121.454 47.7632C127.269 47.7632 132.253 49.7805 136.347 53.8745C140.441 57.9092 142.517 62.8932 142.517 68.7079C142.517 72.6239 141.568 76.1839 139.729 79.4472C134.033 73.7512 127.091 70.9032 118.843 70.9032H117.004C115.224 63.8425 111.842 58.0279 106.917 53.5186Z" fill="black"/>
</svg>
