<svg width="512" height="512" viewBox="0 0 512 512" fill="none" xmlns="http://www.w3.org/2000/svg">
<path d="M90.61 306.85C93.9523 306.332 97.0458 304.772 99.45 302.393C101.854 300.014 103.446 296.937 104 293.6C116.09 220.17 169.63 176 232 176C289.93 176 328.62 213.75 344.2 253.74C345.201 256.303 346.853 258.561 348.992 260.292C351.131 262.023 353.684 263.166 356.4 263.61C406.4 271.76 448 305.15 448 363.2C448 422.6 399.4 464 340 464H106C56.5 464 16 439.3 16 384.8C16 336.33 54.67 312.58 90.61 306.85Z" stroke="black" stroke-width="32" stroke-linejoin="round"/>
<path d="M384.799 271.4C394.58 263.857 402.482 254.151 407.884 243.043C413.287 231.935 416.044 219.727 415.94 207.376C415.835 195.024 412.872 182.865 407.283 171.85C401.693 160.835 393.629 151.264 383.722 143.887C373.815 136.51 362.335 131.527 350.18 129.329C338.025 127.13 325.526 127.777 313.663 131.217C301.8 134.657 290.894 140.797 281.801 149.156C272.707 157.516 265.673 167.867 261.249 179.4M463.999 208H495.999M335.999 48V80M222.859 94.86L245.489 117.49M449.139 94.86L426.509 117.49" stroke="black" stroke-width="32" stroke-linecap="round" stroke-linejoin="round"/>
</svg>
