<svg width="169" height="169" viewBox="0 0 169 169" fill="none" xmlns="http://www.w3.org/2000/svg">
<g clip-path="url(#clip0_349_9)">
<path d="M80.7596 51.2704C81.2502 51.7622 81.833 52.1524 82.4746 52.4187C83.1162 52.6849 83.8041 52.8219 84.4988 52.8219C85.1934 52.8219 85.8813 52.6849 86.5229 52.4187C87.1645 52.1524 87.7473 51.7622 88.2379 51.2704L104.082 35.4266C104.573 34.9356 104.962 34.3527 105.228 33.7111C105.494 33.0695 105.63 32.3819 105.63 31.6875C105.63 30.9931 105.494 30.3055 105.228 29.6639C104.962 29.0223 104.573 28.4394 104.082 27.9484C103.591 27.4573 103.008 27.0678 102.366 26.8021C101.725 26.5364 101.037 26.3996 100.342 26.3996C99.6481 26.3996 98.9604 26.5364 98.3189 26.8021C97.6773 27.0678 97.0944 27.4573 96.6034 27.9484L89.78 34.7823V15.8438C89.78 14.4431 89.2236 13.0998 88.2332 12.1093C87.2427 11.1189 85.8994 10.5625 84.4988 10.5625C83.0981 10.5625 81.7548 11.1189 80.7643 12.1093C79.7739 13.0998 79.2175 14.4431 79.2175 15.8438V34.7823L72.3941 27.9484C71.9031 27.4573 71.3202 27.0678 70.6786 26.8021C70.0371 26.5364 69.3494 26.3996 68.655 26.3996C67.9606 26.3996 67.273 26.5364 66.6314 26.8021C65.9899 27.0678 65.4069 27.4573 64.9159 27.9484C64.4249 28.4394 64.0354 29.0223 63.7696 29.6639C63.5039 30.3055 63.3671 30.9931 63.3671 31.6875C63.3671 32.3819 63.5039 33.0695 63.7696 33.7111C64.0354 34.3527 64.4249 34.9356 64.9159 35.4266L80.7596 51.2704ZM24.7468 45.8835C25.7371 44.8934 27.0802 44.3372 28.4806 44.3372C29.881 44.3372 31.2241 44.8934 32.2144 45.8835L47.1498 60.8083C48.1118 61.8044 48.6441 63.1384 48.6321 64.5232C48.6201 65.9079 48.0646 67.2325 47.0855 68.2117C46.1063 69.1909 44.7817 69.7463 43.3969 69.7583C42.0122 69.7703 40.6782 69.238 39.6821 68.276L24.7468 53.3406C23.7567 52.3502 23.2005 51.0072 23.2005 49.6068C23.2005 48.2064 23.7567 46.8739 24.7468 45.8835ZM144.251 45.8835C145.238 46.8734 145.792 48.2143 145.792 49.6121C145.792 51.0099 145.238 52.3507 144.251 53.3406L129.315 68.276C128.828 68.7804 128.245 69.1828 127.601 69.4595C126.957 69.7363 126.264 69.882 125.563 69.8881C124.861 69.8942 124.166 69.7606 123.517 69.495C122.868 69.2295 122.278 68.8373 121.782 68.3415C121.286 67.8456 120.894 67.2559 120.629 66.6069C120.363 65.9578 120.23 65.2624 120.236 64.5612C120.242 63.8599 120.387 63.1669 120.664 62.5226C120.941 61.8782 121.343 61.2955 121.848 60.8083L136.783 45.8729C137.773 44.8829 139.117 44.3267 140.517 44.3267C141.917 44.3267 143.26 44.8934 144.251 45.8835ZM84.4988 73.9375C90.0619 73.9358 95.5275 75.3987 100.346 78.1792C105.164 80.9596 109.166 84.9596 111.948 89.777C114.731 94.5944 116.196 100.059 116.196 105.623C116.196 111.186 114.732 116.651 111.951 121.469H57.0363C54.2543 116.65 52.7901 111.184 52.791 105.62C52.7919 100.056 54.2578 94.5902 57.0414 89.7724C59.8249 84.9547 63.828 80.9549 68.6479 78.1752C73.4678 75.3955 78.9347 73.9339 84.4988 73.9375ZM123.686 121.469C126.275 115.056 127.251 108.105 126.527 101.227C125.803 94.3484 123.402 87.753 119.534 82.0195C115.666 76.2861 110.45 71.5898 104.343 68.3431C98.236 65.0964 91.4255 63.3985 84.5093 63.3985C77.5931 63.3985 70.7826 65.0964 64.6758 68.3431C58.569 71.5898 53.3526 76.2861 49.4846 82.0195C45.6166 87.753 43.2152 94.3484 42.4914 101.227C41.7675 108.105 42.7433 115.056 45.333 121.469H5.26953C3.86885 121.469 2.52555 122.025 1.53512 123.016C0.544697 124.006 -0.0117187 125.349 -0.0117188 126.75C-0.0117187 128.151 0.544697 129.494 1.53512 130.484C2.52555 131.475 3.86885 132.031 5.26953 132.031H163.707C165.108 132.031 166.451 131.475 167.441 130.484C168.432 129.494 168.988 128.151 168.988 126.75C168.988 125.349 168.432 124.006 167.441 123.016C166.451 122.025 165.108 121.469 163.707 121.469H123.675H123.686ZM-0.00115626 105.625C-0.00115626 104.224 0.555259 102.881 1.54568 101.891C2.53611 100.9 3.87941 100.344 5.28009 100.344H26.4051C27.8057 100.344 29.149 100.9 30.1395 101.891C31.1299 102.881 31.6863 104.224 31.6863 105.625C31.6863 107.026 31.1299 108.369 30.1395 109.359C29.149 110.35 27.8057 110.906 26.4051 110.906H5.28009C3.87941 110.906 2.53611 110.35 1.54568 109.359C0.555259 108.369 -0.00115626 107.026 -0.00115626 105.625ZM137.311 105.625C137.311 104.224 137.868 102.881 138.858 101.891C139.848 100.9 141.192 100.344 142.592 100.344H163.717C165.118 100.344 166.461 100.9 167.452 101.891C168.442 102.881 168.999 104.224 168.999 105.625C168.999 107.026 168.442 108.369 167.452 109.359C166.461 110.35 165.118 110.906 163.717 110.906H142.592C141.192 110.906 139.848 110.35 138.858 109.359C137.868 108.369 137.311 107.026 137.311 105.625Z" fill="black"/>
</g>
<defs>
<clipPath id="clip0_349_9">
<rect width="169" height="169" fill="white"/>
</clipPath>
</defs>
</svg>
